<?xml version="1.0" encoding="utf-8"?>
<!-- Generator: Adobe Illustrator 26.5.0, SVG Export Plug-In . SVG Version: 6.00 Build 0)  -->
<svg version="1.1" id="Layer_1" xmlns="http://www.w3.org/2000/svg" xmlns:xlink="http://www.w3.org/1999/xlink" x="0px" y="0px"
	 viewBox="0 0 1057.5 1013.5" style="enable-background:new 0 0 1057.5 1013.5;" xml:space="preserve">
<style type="text/css">
	.st0{fill:#F4DB12;}
	.st1{fill:none;}
	.st2{opacity:0.1;}
	.st3{fill:#E5242A;}
	.st4{display:none;fill:#E5242A;}
	.st5{opacity:0.64;fill:url(#SVGID_00000175295731800228832400000011893031951008806566_);enable-background:new    ;}
	.st6{fill:#FFFFFF;}
</style>
<g>
	<g>
		<path class="st0" d="M757.2,377.2c27.3-23.2,81.1-38.9,143.1-38.9c8.8,0,17.5,0.3,25.9,0.9v-56.4c-8.4,0.6-17.1,0.9-25.9,0.9
			c-62,0-115.8-15.8-143.1-38.9V377.2z"/>
	</g>
	<path class="st1" d="M757.2,377.2c27.3-23.2,81.1-38.9,143.1-38.9c8.8,0,17.5,0.3,25.9,0.9v-56.4c-8.4,0.6-17.1,0.9-25.9,0.9
		c-62,0-115.8-15.8-143.1-38.9V377.2z"/>
	<path class="st2" d="M888,329.4c-40.9,0-59.8,8-62.2,5.8c-27.3-25.4-36.5-55.3-39.7-72.8c-11.5-5.2-21.2-11.1-28.9-17.6v132.4
		c26.6-22.5,78.2-38.1,138-38.9C900.4,332,902.9,329.4,888,329.4z"/>
	<g>
		<g>
			<ellipse class="st3" cx="923.5" cy="311" rx="54.5" ry="55.9"/>
		</g>
	</g>
	<path class="st2" d="M974.8,329.6c-7.9,4.6-17.1,7.3-26.8,7.3c-30.1,0-54.5-25-54.5-55.9c0-6.5,1.2-12.8,3.2-18.6
		c-16.5,9.6-27.7,27.8-27.7,48.6c0,30.9,24.4,55.9,54.5,55.9C947.2,366.8,967.3,351.3,974.8,329.6z"/>
	<path class="st3" d="M366.7,481.6c0,0,96.4,41,12,171.7c-14.2,22.6,57.9,69.2,121.4,53.1c0,0-25.4-32-20.9-56.4
		c2.7-14.6,58-127.9,58-127.9L366.7,481.6z"/>
	<path class="st3" d="M762.2,553.8c-308.6,65.5-497.9-114.6-487.4-244.2c10.5-219.5,319.8-295.4,487.4-239V553.8z"/>
	<path class="st3" d="M715.9,315.6c0,103.1-83.6,186.7-186.7,186.7s-186.7-83.6-186.7-186.7c0-103.1,83.6-186.7,186.7-186.7
		S715.9,212.5,715.9,315.6z"/>
	<path class="st0" d="M493.2,547.4c-73,54.2,6.8,159.1,6.8,159.1c0-147.9,98.2-139.4,98.2-139.4s-0.4,0,0-0.7
		C560.3,563.8,525.2,557.2,493.2,547.4z"/>
	<g class="st2">
		<defs>
			<path id="SVGID_1_" class="st2" d="M762.2,553.8c-308.6,65.5-497.9-114.6-487.4-244.2c10.5-219.5,319.8-295.4,487.4-239V553.8z"
				/>
		</defs>
		<clipPath id="SVGID_00000000224530423958215670000004583292750375118476_">
			<use xlink:href="#SVGID_1_"  style="overflow:visible;"/>
		</clipPath>
	</g>
	<path class="st2" d="M398.8,651.6c40.4-67.8,35.2-109.9,21.3-134.4c-10-5.4-19.5-11-28.5-17c21.3,23.1,40.7,69.9-13,153
		c-14.2,22.6,57.9,69.2,121.4,53.1c0,0-1.3-1.6-3.2-4.4C447.9,717,382.6,678.9,398.8,651.6z"/>
	<g class="st2">
		<path class="st4" d="M762.2,553.8c-308.6,65.5-497.9-114.6-487.4-244.2c10.5-219.5,319.8-295.4,487.4-239V553.8z"/>
		<g>
			<defs>
				<path id="SVGID_00000183224974036239782110000010230610516495198131_" d="M762.2,553.8c-308.6,65.5-497.9-114.6-487.4-244.2
					c10.5-219.5,319.8-295.4,487.4-239V553.8z"/>
			</defs>
			<clipPath id="SVGID_00000023997440437615444340000001062349326050251136_">
				<use xlink:href="#SVGID_00000183224974036239782110000010230610516495198131_"  style="overflow:visible;"/>
			</clipPath>
		</g>
	</g>
	<circle class="st3" cx="529.2" cy="315.6" r="144.7"/>
	<path class="st2" d="M383.2,424.3c0.6,0.4,1.2,0.7,1.8,1.1c0.4,0.2,0.7,0.4,1.1,0.6v-39.4v-0.2l-71.2-43.1l-2.9-1.8c0,0,0,0,0,0
		l0,0l-0.1,0c-10.3,3.4-21.9,7.3-33.7,11.5c2.9,12.4,7.3,25,13.3,37.5c9.1,1.9,17.9,4.1,26.4,6.7c26.9,8.1,50.1,18.7,64.5,26.7
		C382.7,424.1,382.9,424.2,383.2,424.3z"/>
	<path class="st2" d="M762.2,553.8V195.6c-48.5-29.9-148-65-212.6-66.6c-20.8-0.5-38.4,11.1-55.3,43c4-54.4,50.1-102.7,90.8-116.1
		c-111.7,12.6-226,62.5-279.5,151.4c47.8,1.8,70.4,13.6,76.2,20.8c19.7,2.6-36.9,49.4-10.1,50.3C347.5,349.3,424.4,405,416.1,463
		c19.6,18.1,55.5,47.1,96,71.9c-66.5-18.1-138.3-53.3-205.3-117.5C372.6,517.2,535.1,602,762.2,553.8z"/>
	<path class="st0" d="M751.2,67.2c3.3,0.8,6.7,1.7,10,2.7c0,0-244.2-154.3-591.4-4.1l135.8,141.3C387.7,71.1,612,26.4,751.2,67.2z"
		/>
	<path class="st2" d="M394.2,119.6c-24.8,6.1-110,18.9-222.7-54.6c-0.5,0.2-1,0.4-1.5,0.7l135.8,141.3
		C327,171.7,357.8,142.7,394.2,119.6z"/>
	<path class="st2" d="M286.9,187.4l18.8,19.6C387.7,71.1,612,26.4,751.2,67.2c3.3,0.8,6.7,1.7,10,2.7c0,0-1.1-0.7-3.2-1.9
		C615.2,22.3,382.4,60.5,286.9,187.4z"/>
	<path class="st0" d="M529.2,129c-72.9,0-136.1,41.9-166.8,102.8c-101.9,16.5-141.6,26.3-141.6,26.3s23.9,26,52.7,49
		c0,0-114.9-1-193.9,39.2h0c0.9-0.1,168.8-10.8,279.7,46.8c29.4,64.4,94.4,109.2,169.8,109.2c103.1,0,186.7-83.6,186.7-186.7
		C715.9,212.5,632.3,129,529.2,129z M529.2,460.4c-79.9,0-144.7-64.8-144.7-144.7c0-79.9,64.8-144.7,144.7-144.7
		c79.9,0,144.7,64.8,144.7,144.7C673.9,395.6,609.1,460.4,529.2,460.4z"/>
	
		<radialGradient id="SVGID_00000082366671358633259120000011014141477390294203_" cx="114.6468" cy="2049.2188" r="2.7253" gradientTransform="matrix(2.000000e-15 40.5 40.5 -2.000000e-15 -82461.4609 -4319.3872)" gradientUnits="userSpaceOnUse">
		<stop  offset="0" style="stop-color:#FFFFFF"/>
		<stop  offset="1" style="stop-color:#FFFFFF;stop-opacity:0"/>
	</radialGradient>
	<path style="opacity:0.64;fill:url(#SVGID_00000082366671358633259120000011014141477390294203_);enable-background:new    ;" d="
		M642.3,323.8c0,61-49.4,110.4-110.4,110.4c-61,0-110.4-49.4-110.4-110.4s49.4-110.4,110.4-110.4
		C592.9,213.4,642.3,262.9,642.3,323.8z"/>
	<path class="st6" d="M598.7,302.8l-64.9-7.3l25.8-101.1L448.8,322.9l66.9,7.3l-29.5,106.7L598.7,302.8z"/>
	<path class="st2" d="M355.2,376.4c0,0-87.3-49.5-275-30.4c-0.2,0.1-0.4,0.2-0.7,0.3h0c0.9-0.1,168.8-10.8,279.7,46.8
		c0.1,0.1,0.1,0.3,0.2,0.4L355.2,376.4z"/>
</g>
<g>
	<path class="st6" d="M155,1011.4h-39.8c-7.4,0-12.7-2.8-15.9-8.3l-31.5-55c-1.5-2.3-3.1-4-4.9-5.1c-1.8-1.1-4.4-1.6-7.8-1.6H43.9
		v70.1H0V822h61.6c13.7,0,25.4,1.4,35,4.2c9.7,2.8,17.6,6.7,23.7,11.8c6.1,5,10.6,11,13.3,17.8c2.8,6.8,4.2,14.3,4.2,22.4
		c0,6.2-0.8,12-2.5,17.4c-1.6,5.5-4.1,10.5-7.3,15.1c-3.2,4.6-7.2,8.8-11.9,12.4c-4.7,3.6-10.2,6.6-16.3,9c2.9,1.5,5.5,3.3,8.1,5.5
		c2.5,2.2,4.8,4.8,6.8,7.9L155,1011.4z M61.6,911c6,0,11.1-0.8,15.3-2.3c4.2-1.5,7.6-3.6,10.3-6.3c2.7-2.7,4.6-5.8,5.9-9.4
		c1.2-3.6,1.8-7.5,1.8-11.6c0-8.3-2.7-14.8-8.1-19.5c-5.4-4.7-13.8-7-25.2-7H43.9V911H61.6z"/>
	<path class="st6" d="M438.1,939.4v72h-43.9v-72L325.5,822h38.7c3.8,0,6.8,0.9,9,2.7c2.2,1.8,4.1,4.1,5.5,6.8l26.8,55.1
		c2.3,4.3,4.3,8.4,6.1,12.2c1.8,3.8,3.4,7.5,4.8,11.1c1.3-3.7,2.8-7.5,4.5-11.2c1.7-3.8,3.7-7.8,5.9-12l26.5-55.1
		c0.6-1.1,1.3-2.3,2.2-3.4c0.9-1.1,1.9-2.1,3.1-3.1s2.5-1.6,4-2.2c1.5-0.6,3.2-0.8,5-0.8h39L438.1,939.4z"/>
	<path class="st6" d="M600.6,913.2h67.3v80c-9.7,7.1-20,12.3-31,15.5c-11,3.2-22.4,4.8-34.4,4.8c-15.6,0-29.8-2.4-42.6-7.3
		c-12.8-4.9-23.7-11.7-32.8-20.3c-9.1-8.6-16.1-18.8-21.1-30.7c-4.9-11.8-7.4-24.7-7.4-38.5c0-14.1,2.3-27.1,7-38.9
		c4.7-11.8,11.4-22,20.1-30.6c8.7-8.6,19.2-15.3,31.6-20c12.3-4.8,26.1-7.2,41.4-7.2c7.9,0,15.3,0.7,22.2,2
		c6.9,1.3,13.3,3.1,19.2,5.3c5.8,2.3,11.2,4.9,16.1,8.1c4.9,3.1,9.2,6.5,13,10.1l-12.7,19.4c-2,3-4.6,4.9-7.7,5.6
		c-3.2,0.7-6.6-0.1-10.2-2.3c-3.5-2.1-6.7-3.9-9.8-5.4c-3.1-1.5-6.2-2.8-9.4-3.7c-3.2-1-6.6-1.6-10.1-2.1c-3.6-0.4-7.5-0.7-12-0.7
		c-8.2,0-15.6,1.5-22.2,4.4c-6.6,2.9-12.2,7-16.8,12.3c-4.6,5.3-8.2,11.6-10.7,19c-2.5,7.4-3.8,15.7-3.8,24.8
		c0,10.1,1.4,19,4.2,26.8c2.8,7.8,6.7,14.4,11.8,19.8c5.1,5.4,11.1,9.5,18.2,12.3c7.1,2.8,14.9,4.2,23.5,4.2
		c5.3,0,10.1-0.5,14.4-1.6c4.3-1,8.5-2.4,12.5-4.2v-28.7h-18.7c-2.8,0-4.9-0.7-6.5-2.2c-1.6-1.5-2.3-3.3-2.3-5.6V913.2z"/>
	<path class="st6" d="M776.5,976.7c5.9,0,11.2-1,15.8-2.9c4.6-1.9,8.6-4.7,11.8-8.4c3.2-3.6,5.7-8.1,7.3-13.3
		c1.7-5.2,2.5-11.2,2.5-17.9V822h43.9v112.2c0,11.6-1.9,22.3-5.7,32c-3.8,9.7-9.2,18.1-16.2,25.1c-7,7-15.6,12.5-25.6,16.4
		c-10.1,3.9-21.4,5.8-33.9,5.8c-12.7,0-24-1.9-34.1-5.8c-10.1-3.9-18.6-9.4-25.6-16.4c-7-7-12.4-15.4-16.1-25.1
		c-3.7-9.7-5.6-20.4-5.6-32V822H739V934c0,6.7,0.8,12.6,2.5,17.9c1.7,5.2,4.1,9.7,7.3,13.4c3.2,3.7,7.1,6.5,11.8,8.4
		C765.3,975.7,770.6,976.7,776.5,976.7z"/>
	<path class="st6" d="M1057.5,822v189.4h-22.9c-3.4,0-6.2-0.5-8.5-1.6c-2.3-1.1-4.6-3-6.8-5.7l-89.3-113c0.3,3.4,0.6,6.7,0.7,9.8
		c0.1,3.2,0.2,6.1,0.2,8.9v101.5h-38.7V822h23.1c1.9,0,3.5,0.1,4.8,0.3c1.3,0.2,2.5,0.5,3.5,1c1,0.5,2,1.1,3,2c1,0.9,2,2,3.2,3.5
		l90.1,113.8c-0.4-3.6-0.7-7.2-0.9-10.6c-0.2-3.4-0.3-6.7-0.3-9.7V822H1057.5z"/>
	<g>
		<path class="st6" d="M322.6,932.7h-41.5l2.1,6.3h-0.1l15.8,46.7l0,0l5.5,16.2c1.2,2.8,3,5.1,5.3,6.8c2.3,1.8,5.4,2.7,9.2,2.7h34.1
			L322.6,932.7z"/>
		<polygon class="st6" points="243,902.7 257.2,859.7 271.3,902.7 311,902.7 279.8,822 234.8,822 203.5,902.7 		"/>
		<path class="st6" d="M191.9,932.7l-30.5,78.7h34.3c3.6,0,6.7-1,9.2-2.9c2.5-2,4.2-4.1,5.1-6.6l6.4-18.8l16.6-50.4H191.9z"/>
	</g>
</g>
</svg>
